<?xml version="1.0" standalone="no"?>
<!DOCTYPE svg PUBLIC "-//W3C//DTD SVG 20010904//EN"
 "http://www.w3.org/TR/2001/REC-SVG-20010904/DTD/svg10.dtd">
<svg version="1.0" xmlns="http://www.w3.org/2000/svg"
 width="1642.000000pt" height="1642.000000pt" viewBox="0 0 1642.000000 1642.000000"
 preserveAspectRatio="xMidYMid meet">
<metadata>
Created by potrace 1.14, written by Peter Selinger 2001-2017
</metadata>
<g transform="translate(0.000000,1642.000000) scale(0.100000,-0.100000)"
fill="#000000" stroke="none">
<path d="M5140 8270 l0 -5470 445 0 445 0 0 2595 c0 1931 3 2595 11 2595 7 0
118 13 248 30 1207 152 2160 245 2696 264 313 11 563 -84 824 -313 133 -116
379 -430 446 -570 182 -374 443 -1808 710 -3902 49 -388 53 -408 97 -492 80
-150 249 -225 448 -198 213 29 327 149 337 356 5 82 -6 149 -122 790 -360
1993 -594 3224 -676 3562 -39 162 -135 337 -283 513 -232 277 -553 519 -776
584 -101 30 -329 48 -510 41 -312 -12 -819 -56 -1400 -121 -559 -62 -1930
-238 -2027 -259 l-23 -5 0 2735 0 2735 -445 0 -445 0 0 -5470z"/>
<path d="M10780 13387 c-986 -978 -3125 -3101 -3568 -3542 l-503 -500 3 -225
3 -225 490 485 c270 267 695 687 945 935 424 420 638 632 1820 1800 250 248
662 655 915 906 253 251 517 512 588 579 70 68 127 127 127 131 0 5 -105 9
-232 9 l-233 0 -355 -353z"/>
</g>
</svg>
